<svg width="28" height="28" viewBox="0 0 28 28" fill="none" xmlns="http://www.w3.org/2000/svg">
<path d="M19.1244 16.246C22.4855 11.6053 21.3614 5.17928 16.6152 1.89366C11.869 -1.39197 5.29699 -0.293618 1.93669 4.34786C-1.4236 8.98856 -0.300291 15.4138 4.44668 18.6994C7.83427 21.0445 12.3131 21.225 15.8861 19.1618L23.6497 26.7074C24.488 27.5702 25.8827 27.6047 26.7651 26.7851C27.6476 25.9662 27.6829 24.6025 26.8454 23.7397C26.8189 23.7122 26.7932 23.6871 26.7651 23.6612L19.1244 16.246ZM10.5241 16.9494C6.77359 16.9502 3.73287 13.9794 3.73046 10.3122C3.72965 6.64505 6.76797 3.6719 10.5193 3.67033C14.265 3.66876 17.3041 6.63484 17.3113 10.2973C17.3178 13.9653 14.2811 16.9431 10.5289 16.9494C10.5273 16.9494 10.5265 16.9494 10.5241 16.9494Z" fill="white"/>
</svg>
