<svg width="86" height="86" viewBox="0 0 86 86" fill="none" xmlns="http://www.w3.org/2000/svg">
<circle cx="42.7127" cy="42.7127" r="42.7127" fill="black"/>
<g filter="url(#filter0_d_9071_1950)">
<path d="M29.36 50.32C28.1867 50.32 27.0533 50.1867 25.96 49.92C24.8667 49.6533 23.9667 49.3067 23.26 48.88L24.78 45.44C25.4467 45.8267 26.1867 46.14 27 46.38C27.8267 46.6067 28.6267 46.72 29.4 46.72C29.8533 46.72 30.2067 46.6933 30.46 46.64C30.7267 46.5733 30.92 46.4867 31.04 46.38C31.16 46.26 31.22 46.12 31.22 45.96C31.22 45.7067 31.08 45.5067 30.8 45.36C30.52 45.2133 30.1467 45.0933 29.68 45C29.2267 44.8933 28.7267 44.7867 28.18 44.68C27.6333 44.56 27.08 44.4067 26.52 44.22C25.9733 44.0333 25.4667 43.7867 25 43.48C24.5467 43.1733 24.18 42.7733 23.9 42.28C23.62 41.7733 23.48 41.1467 23.48 40.4C23.48 39.5333 23.72 38.7467 24.2 38.04C24.6933 37.32 25.42 36.7467 26.38 36.32C27.3533 35.8933 28.56 35.68 30 35.68C30.9467 35.68 31.88 35.78 32.8 35.98C33.72 36.18 34.5467 36.4867 35.28 36.9L33.86 40.32C33.1667 39.9733 32.4933 39.7133 31.84 39.54C31.2 39.3667 30.5733 39.28 29.96 39.28C29.5067 39.28 29.1467 39.32 28.88 39.4C28.6133 39.48 28.42 39.5867 28.3 39.72C28.1933 39.8533 28.14 40 28.14 40.16C28.14 40.4 28.28 40.5933 28.56 40.74C28.84 40.8733 29.2067 40.9867 29.66 41.08C30.1267 41.1733 30.6333 41.2733 31.18 41.38C31.74 41.4867 32.2933 41.6333 32.84 41.82C33.3867 42.0067 33.8867 42.2533 34.34 42.56C34.8067 42.8667 35.18 43.2667 35.46 43.76C35.74 44.2533 35.88 44.8667 35.88 45.6C35.88 46.4533 35.6333 47.24 35.14 47.96C34.66 48.6667 33.94 49.24 32.98 49.68C32.02 50.1067 30.8133 50.32 29.36 50.32ZM40.5916 50V43.86L41.6716 46.68L35.3116 36H40.2916L44.5916 43.3H41.6916L46.0316 36H50.5916L44.2716 46.68L45.3116 43.86V50H40.5916ZM51.0931 50V36H55.8131V46.34H62.1331V50H51.0931Z" fill="white"/>
</g>
<defs>
<filter id="filter0_d_9071_1950" x="20.26" y="32.6797" width="46.8731" height="22.6406" filterUnits="userSpaceOnUse" color-interpolation-filters="sRGB">
<feFlood flood-opacity="0" result="BackgroundImageFix"/>
<feColorMatrix in="SourceAlpha" type="matrix" values="0 0 0 0 0 0 0 0 0 0 0 0 0 0 0 0 0 0 127 0" result="hardAlpha"/>
<feOffset dx="1" dy="1"/>
<feGaussianBlur stdDeviation="2"/>
<feComposite in2="hardAlpha" operator="out"/>
<feColorMatrix type="matrix" values="0 0 0 0 0.85098 0 0 0 0 0.85098 0 0 0 0 0.85098 0 0 0 1 0"/>
<feBlend mode="normal" in2="BackgroundImageFix" result="effect1_dropShadow_9071_1950"/>
<feBlend mode="normal" in="SourceGraphic" in2="effect1_dropShadow_9071_1950" result="shape"/>
</filter>
</defs>
</svg>
