<svg width="100" height="100" viewBox="0 0 100 100" fill="none" xmlns="http://www.w3.org/2000/svg">
<circle cx="50" cy="50" r="50" fill="#B3C0D2"/>
<g clip-path="url(#clip0_9010_3493)">
<path d="M72.8435 58.9921C73.8682 57.6851 74.3596 56.284 74.2968 54.8411C74.2341 53.2518 73.5231 52.0075 72.9376 51.2442C73.6172 49.5504 73.8786 46.8841 71.6097 44.8139C69.9472 43.2978 67.1241 42.6182 63.2136 42.8064C60.4637 42.9318 58.1634 43.4442 58.0693 43.4651H58.0589C57.5361 43.5592 56.9819 43.6742 56.4173 43.7997C56.3755 43.1305 56.4905 41.468 57.7243 37.7248C59.1881 33.2706 59.1045 29.862 57.4524 27.5826C55.7168 25.1882 52.9459 25 52.1304 25C51.3462 25 50.6247 25.3241 50.1124 25.9201C48.9518 27.2689 49.0877 29.7574 49.2341 30.9076C47.8539 34.6089 43.9853 43.6847 40.7126 46.2045C40.6498 46.2463 40.5976 46.2986 40.5453 46.3509C39.5833 47.3651 38.9351 48.463 38.4959 49.4249C37.879 49.0903 37.1785 48.9021 36.4257 48.9021H30.0476C27.6427 48.9021 25.6979 50.8574 25.6979 53.2518V70.2426C25.6979 72.6474 27.6532 74.5922 30.0476 74.5922H36.4257C37.3562 74.5922 38.2241 74.2995 38.9351 73.7976L41.3922 74.0903C41.7686 74.1426 48.4604 74.9895 55.3299 74.8536C56.5741 74.9477 57.7452 75 58.8326 75C60.7042 75 62.3353 74.8536 63.6946 74.5609C66.8941 73.8812 69.0794 72.522 70.1877 70.5249C71.0346 68.9983 71.0346 67.4822 70.8987 66.5203C72.9794 64.6382 73.3454 62.5575 73.2722 61.0937C73.2303 60.2468 73.0421 59.5253 72.8435 58.9921ZM30.0476 71.7691C29.2007 71.7691 28.521 71.079 28.521 70.2426V53.2413C28.521 52.3944 29.2111 51.7148 30.0476 51.7148H36.4257C37.2726 51.7148 37.9522 52.4049 37.9522 53.2413V70.2321C37.9522 71.079 37.2621 71.7587 36.4257 71.7587H30.0476V71.7691ZM70.1668 57.7687C69.7276 58.2288 69.644 58.9293 69.9786 59.473C69.9786 59.4835 70.4073 60.2154 70.4595 61.2192C70.5327 62.5889 69.874 63.8018 68.4938 64.8369C68.0024 65.2133 67.8037 65.8616 68.0129 66.4471C68.0129 66.4575 68.4625 67.8377 67.7306 69.1447C67.03 70.3994 65.4721 71.2986 63.1091 71.8005C61.2165 72.2083 58.6444 72.2815 55.4867 72.0305C55.4449 72.0305 55.3926 72.0305 55.3403 72.0305C48.6172 72.1769 41.8209 71.2986 41.7477 71.2882H41.7372L40.6812 71.1627C40.7439 70.8699 40.7753 70.5563 40.7753 70.2426V53.2413C40.7753 52.7917 40.7021 52.3526 40.5766 51.9448C40.7649 51.2442 41.2876 49.6863 42.5214 48.3584C47.2161 44.6361 51.8063 32.0786 52.0049 31.5349C52.0886 31.3153 52.1095 31.0749 52.0677 30.8344C51.8899 29.6633 51.9526 28.2309 52.2036 27.8022C52.7577 27.8126 54.2529 27.9695 55.1521 29.2137C56.2186 30.688 56.1768 33.3229 55.0267 36.8151C53.2701 42.1372 53.1237 44.9394 54.5143 46.1731C55.2044 46.79 56.1245 46.8214 56.7937 46.5809C57.4315 46.4345 58.038 46.3091 58.613 46.215C58.6549 46.2045 58.7071 46.1941 58.749 46.1836C61.9589 45.4831 67.7096 45.0544 69.7067 46.8737C71.4006 48.4212 70.1981 50.4705 70.0622 50.6901C69.6754 51.2756 69.7904 52.0389 70.3132 52.5094C70.3236 52.5199 71.4215 53.555 71.4738 54.9456C71.5156 55.8762 71.0764 56.8277 70.1668 57.7687Z" fill="#002C6A"/>
</g>
<defs>
<clipPath id="clip0_9010_3493">
<rect width="50" height="50" fill="white" transform="translate(25 25)"/>
</clipPath>
</defs>
</svg>
